<svg xmlns="http://www.w3.org/2000/svg" xmlns:xlink="http://www.w3.org/1999/xlink" width="222" zoomAndPan="magnify" viewBox="0 0 166.5 60" height="80" preserveAspectRatio="xMidYMid meet" version="1.0"><defs><g/></defs><g fill="#f7b726" fill-opacity="1"><g transform="translate(9.34731, 50.244816)"><g><path d="M 17.59375 -29.875 L 30.453125 0 L 24.390625 0 L 21.59375 -6.828125 L 8.640625 -6.828125 L 5.953125 0 L 0 0 L 13 -29.875 Z M 10.46875 -11.390625 L 19.75 -11.390625 L 15.140625 -23.546875 Z M 10.46875 -11.390625 "/></g></g></g><g fill="#f7b726" fill-opacity="1"><g transform="translate(55.998475, 50.244816)"><g><path d="M 13.875 -29.875 C 17.445312 -29.875 20.164062 -29.132812 22.03125 -27.65625 C 23.90625 -26.175781 24.84375 -24.054688 24.84375 -21.296875 C 24.84375 -19.046875 24.21875 -17.210938 22.96875 -15.796875 C 21.71875 -14.378906 20.035156 -13.515625 17.921875 -13.203125 L 25.859375 0 L 19.453125 0 L 12.53125 -12.65625 L 8.640625 -12.65625 L 8.640625 0 L 3.328125 0 L 3.328125 -29.875 Z M 13.03125 -17.21875 C 15.34375 -17.21875 16.960938 -17.5625 17.890625 -18.25 C 18.816406 -18.9375 19.28125 -19.96875 19.28125 -21.34375 C 19.28125 -23.988281 17.328125 -25.3125 13.421875 -25.3125 L 8.640625 -25.3125 L 8.640625 -17.21875 Z M 13.03125 -17.21875 "/></g></g></g><g fill="#e3ce76" fill-opacity="1"><g transform="translate(98.771679, 50.244816)"><g><path d="M 8.515625 -29.875 L 8.515625 0 L 3.203125 0 L 3.203125 -29.875 Z M 8.515625 -29.875 "/></g></g></g><g fill="#f7b726" fill-opacity="1"><g transform="translate(126.695115, 50.244816)"><g><path d="M 17.59375 -29.875 L 30.453125 0 L 24.390625 0 L 21.59375 -6.828125 L 8.640625 -6.828125 L 5.953125 0 L 0 0 L 13 -29.875 Z M 10.46875 -11.390625 L 19.75 -11.390625 L 15.140625 -23.546875 Z M 10.46875 -11.390625 "/></g></g></g></svg>