<svg xmlns="http://www.w3.org/2000/svg" xmlns:xlink="http://www.w3.org/1999/xlink" width="148" zoomAndPan="magnify" viewBox="0 0 110.88 39.749999" height="53" preserveAspectRatio="xMidYMid meet" version="1.0"><defs><g/><clipPath id="cb36a9c65d"><path d="M 0.285156 9 L 24 9 L 24 32 L 0.285156 32 Z M 0.285156 9 " clip-rule="nonzero"/></clipPath></defs><g clip-path="url(#cb36a9c65d)"><g fill="#f7b726" fill-opacity="1"><g transform="translate(0.752262, 31.520267)"><g><path d="M 12.921875 -21.953125 L 22.375 0 L 17.921875 0 L 15.875 -5.015625 L 6.359375 -5.015625 L 4.375 0 L 0 0 L 9.546875 -21.953125 Z M 7.6875 -8.375 L 14.515625 -8.375 L 11.125 -17.296875 Z M 7.6875 -8.375 "/></g></g></g></g><g fill="#f7b726" fill-opacity="1"><g transform="translate(35.040311, 31.520267)"><g><path d="M 10.203125 -21.953125 C 12.828125 -21.953125 14.828125 -21.40625 16.203125 -20.3125 C 17.578125 -19.226562 18.265625 -17.675781 18.265625 -15.65625 C 18.265625 -14 17.800781 -12.648438 16.875 -11.609375 C 15.957031 -10.566406 14.722656 -9.929688 13.171875 -9.703125 L 19 0 L 14.296875 0 L 9.203125 -9.296875 L 6.359375 -9.296875 L 6.359375 0 L 2.453125 0 L 2.453125 -21.953125 Z M 9.578125 -12.640625 C 11.273438 -12.640625 12.460938 -12.894531 13.140625 -13.40625 C 13.828125 -13.914062 14.171875 -14.675781 14.171875 -15.6875 C 14.171875 -17.625 12.734375 -18.59375 9.859375 -18.59375 L 6.359375 -18.59375 L 6.359375 -12.640625 Z M 9.578125 -12.640625 "/></g></g></g><g fill="#e3ce76" fill-opacity="1"><g transform="translate(66.478104, 31.520267)"><g><path d="M 6.265625 -21.953125 L 6.265625 0 L 2.359375 0 L 2.359375 -21.953125 Z M 6.265625 -21.953125 "/></g></g></g><g fill="#f7b726" fill-opacity="1"><g transform="translate(87.001496, 31.520267)"><g><path d="M 12.921875 -21.953125 L 22.375 0 L 17.921875 0 L 15.875 -5.015625 L 6.359375 -5.015625 L 4.375 0 L 0 0 L 9.546875 -21.953125 Z M 7.6875 -8.375 L 14.515625 -8.375 L 11.125 -17.296875 Z M 7.6875 -8.375 "/></g></g></g></svg>