<svg xmlns="http://www.w3.org/2000/svg" xmlns:xlink="http://www.w3.org/1999/xlink" width="512" zoomAndPan="magnify" viewBox="0 0 384 95.249998" height="127" preserveAspectRatio="xMidYMid meet" version="1.0"><defs><g/><clipPath id="cd9cc19974"><path d="M 207 67 L 213.480469 67 L 213.480469 75 L 207 75 Z M 207 67 " clip-rule="nonzero"/></clipPath><clipPath id="572237fd0e"><path d="M 170.320312 61 L 181 61 L 181 64 L 170.320312 64 Z M 170.320312 61 " clip-rule="nonzero"/></clipPath><clipPath id="cd334f777d"><path d="M 183 43.109375 L 188 43.109375 L 188 54 L 183 54 Z M 183 43.109375 " clip-rule="nonzero"/></clipPath><clipPath id="d5791d4502"><path d="M 173 43.109375 L 179 43.109375 L 179 49 L 173 49 Z M 173 43.109375 " clip-rule="nonzero"/></clipPath><clipPath id="ca732016f5"><path d="M 200 43.109375 L 203 43.109375 L 203 47 L 200 47 Z M 200 43.109375 " clip-rule="nonzero"/></clipPath></defs><g fill="#006c3f" fill-opacity="1"><g transform="translate(65.907777, 77.007256)"><g><path d="M 8.199219 -5.089844 C 11.804688 -7.480469 13.6875 -11.359375 11.554688 -14.574219 C 7.03125 -21.394531 -0.476562 -12.03125 -3.933594 -17.246094 C -4.726562 -18.4375 -4.625 -19.875 -3.089844 -20.890625 C -0.0703125 -22.894531 2.199219 -17.839844 5.144531 -19.792969 C 6.386719 -20.617188 6.527344 -21.730469 5.816406 -22.800781 C 4.371094 -25.035156 -0.0234375 -25.207031 -4.066406 -22.523438 C -8.085938 -19.859375 -9.230469 -15.976562 -7.179688 -12.882812 C -2.417969 -5.761719 5.125 -15.117188 8.277344 -10.367188 C 9.117188 -9.101562 8.71875 -7.746094 7.304688 -6.808594 C 3.648438 -4.386719 1.132812 -9.238281 -1.515625 -7.519531 C -2.734375 -6.710938 -2.800781 -5.648438 -2.121094 -4.625 C -0.683594 -2.457031 3.742188 -2.132812 8.199219 -5.089844 Z M 8.199219 -5.089844 "/></g></g></g><g fill="#006c3f" fill-opacity="1"><g transform="translate(80.884304, 67.184767)"><g><path d="M 6.0625 -3.117188 C 8.832031 -4.695312 9.105469 -7.578125 7.992188 -9.53125 C 7.71875 -10.015625 7.019531 -9.820312 6.925781 -9.160156 C 6.90625 -8.542969 6.777344 -7.828125 5.785156 -7.265625 C 5.148438 -6.902344 4.351562 -7.121094 3.859375 -7.984375 L 0.386719 -14.082031 L 3.003906 -15.574219 C 3.335938 -15.761719 3.445312 -16.160156 3.253906 -16.488281 L 2.9375 -17.046875 C 2.75 -17.378906 2.351562 -17.488281 2.019531 -17.300781 L -0.59375 -15.808594 L -2.058594 -18.375 C -2.289062 -18.78125 -2.710938 -18.875 -3.117188 -18.644531 L -3.703125 -18.3125 C -4.035156 -18.125 -4.167969 -17.710938 -4.011719 -17.261719 C -3.460938 -15.523438 -4.101562 -13.8125 -5.648438 -12.929688 L -6.132812 -12.65625 C -6.488281 -12.453125 -6.585938 -12.09375 -6.382812 -11.738281 L -6.066406 -11.179688 C -5.878906 -10.847656 -5.480469 -10.738281 -5.148438 -10.925781 L -4.183594 -11.476562 L -0.753906 -5.457031 C 0.996094 -2.382812 3.546875 -1.683594 6.0625 -3.117188 Z M 6.0625 -3.117188 "/></g></g></g><g fill="#006c3f" fill-opacity="1"><g transform="translate(90.54433, 61.548749)"><g><path d="M 9.589844 -18.726562 L 9.539062 -18.832031 C 9.347656 -19.226562 8.996094 -19.414062 8.550781 -19.261719 L 5.085938 -18.164062 C 4.273438 -17.902344 3.914062 -17.367188 4.195312 -16.789062 L 4.273438 -16.632812 C 3.175781 -16.945312 1.921875 -16.855469 0.554688 -16.191406 C -2.757812 -14.582031 -4.386719 -10.511719 -2.484375 -6.59375 C -0.390625 -2.28125 3.730469 -1.488281 6.910156 -3.03125 C 8.199219 -3.65625 9.152344 -4.640625 9.558594 -5.746094 L 9.671875 -5.507812 C 9.863281 -5.113281 10.28125 -4.992188 10.675781 -5.183594 L 14.4375 -7.011719 C 14.777344 -7.175781 14.925781 -7.476562 14.773438 -7.789062 L 14.722656 -7.894531 C 14.363281 -8.632812 13.160156 -8.4375 12.570312 -9.648438 L 9.582031 -15.800781 C 8.878906 -17.246094 9.859375 -18.175781 9.589844 -18.726562 Z M 7.339844 -4.832031 C 5.328125 -3.953125 2.007812 -8.578125 1.015625 -10.828125 C 0.0703125 -12.96875 0.234375 -14.445312 1.519531 -15.070312 C 2.730469 -15.65625 4.527344 -14.902344 5.484375 -12.933594 L 7.949219 -7.855469 C 8.636719 -6.4375 8.246094 -5.238281 7.339844 -4.832031 Z M 7.339844 -4.832031 "/></g></g></g><g fill="#006c3f" fill-opacity="1"><g transform="translate(105.828143, 54.18568)"><g><path d="M 4.410156 -17.21875 C 2.539062 -16.464844 1.644531 -15.003906 1.75 -13.027344 L 0.953125 -15.007812 C 0.734375 -15.546875 0.308594 -15.820312 -0.265625 -15.210938 L -3.367188 -11.878906 C -3.6875 -11.5 -3.804688 -11.167969 -3.675781 -10.84375 L -3.640625 -10.761719 C -3.324219 -9.972656 -1.980469 -10.390625 -1.464844 -9.117188 L 0.707031 -3.71875 C 1.210938 -2.472656 0.257812 -1.710938 0.5625 -0.953125 L 0.605469 -0.84375 C 0.738281 -0.515625 1.085938 -0.4375 1.464844 -0.589844 L 7.292969 -2.9375 C 7.671875 -3.089844 7.867188 -3.390625 7.738281 -3.714844 L 7.691406 -3.824219 C 7.386719 -4.582031 5.820312 -4.328125 5.316406 -5.578125 L 3.285156 -10.621094 C 2.804688 -11.8125 2.371094 -13.277344 3.238281 -13.628906 C 4.597656 -14.171875 4.511719 -11.175781 6.976562 -12.171875 C 8.550781 -12.804688 8.585938 -14.203125 8.039062 -15.5625 C 7.425781 -17.078125 6.007812 -17.863281 4.410156 -17.21875 Z M 4.410156 -17.21875 "/></g></g></g><g fill="#006c3f" fill-opacity="1"><g transform="translate(117.523082, 49.373374)"><g><path d="M 5.054688 -16.703125 C 3.914062 -16.332031 3.03125 -15.738281 2.492188 -14.949219 L 0.0703125 -22.398438 C -0.191406 -23.203125 -0.859375 -23.171875 -1.445312 -22.613281 L -5.085938 -19.25 C -5.605469 -18.773438 -5.691406 -18.558594 -5.582031 -18.226562 L -5.546875 -18.113281 C -5.292969 -17.335938 -3.859375 -17.554688 -3.433594 -16.25 L 0.675781 -3.601562 C 1.097656 -2.292969 0.09375 -1.597656 0.347656 -0.820312 L 0.382812 -0.707031 C 0.492188 -0.375 0.804688 -0.261719 1.195312 -0.386719 L 5.402344 -1.722656 C 5.902344 -1.886719 6.0625 -2.152344 5.890625 -2.683594 L 5.808594 -2.933594 C 6.894531 -2.425781 8.097656 -2.324219 9.570312 -2.800781 C 13.019531 -3.921875 15.21875 -7.742188 13.792969 -12.132812 C 12.328125 -16.636719 8.195312 -17.722656 5.054688 -16.703125 Z M 8.683594 -4.019531 C 7.460938 -3.621094 5.757812 -4.882812 5.207031 -6.578125 L 3.457031 -11.972656 C 2.949219 -13.53125 3.328125 -14.636719 4.328125 -14.960938 C 6.359375 -15.621094 8.683594 -11.210938 9.660156 -8.207031 C 10.398438 -5.929688 10.101562 -4.480469 8.683594 -4.019531 Z M 8.683594 -4.019531 "/></g></g></g><g fill="#006c3f" fill-opacity="1"><g transform="translate(133.464647, 44.166833)"><g><path d="M 14.484375 -6.789062 L 12.058594 -16.878906 C 11.933594 -17.390625 11.464844 -17.457031 10.667969 -17.148438 L 6.570312 -15.558594 C 6.1875 -15.40625 6 -15.0625 6.074219 -14.75 L 6.101562 -14.636719 C 6.273438 -13.925781 7.492188 -13.855469 7.8125 -12.519531 L 9.164062 -6.894531 C 9.582031 -5.160156 9.023438 -3.851562 7.972656 -3.601562 C 6.722656 -3.300781 5.914062 -4.039062 5.382812 -6.375 L 3.445312 -14.808594 C 3.320312 -15.320312 2.769531 -15.367188 1.972656 -15.054688 L -2.125 -13.46875 C -2.511719 -13.316406 -2.699219 -12.972656 -2.621094 -12.65625 L -2.59375 -12.542969 C -2.425781 -11.832031 -1.207031 -11.765625 -0.882812 -10.429688 L 0.257812 -5.683594 C 1.132812 -2.046875 4.046875 -0.671875 6.917969 -1.363281 C 8.851562 -1.828125 10.035156 -2.773438 10.5 -4.089844 C 10.9375 -2.898438 11.808594 -2.660156 13.570312 -3.082031 C 15.390625 -3.519531 16.457031 -3.957031 16.273438 -4.722656 C 15.992188 -5.890625 15.035156 -4.488281 14.484375 -6.789062 Z M 14.484375 -6.789062 "/></g></g></g><g fill="#006c3f" fill-opacity="1"><g transform="translate(149.804087, 40.289464)"><g><path d="M 7.992188 -15.875 C 6.003906 -15.539062 4.820312 -14.300781 4.496094 -12.351562 L 4.140625 -14.453125 C 4.042969 -15.03125 3.6875 -15.386719 2.996094 -14.914062 L -0.746094 -12.324219 C -1.140625 -12.023438 -1.328125 -11.722656 -1.269531 -11.378906 L -1.253906 -11.289062 C -1.113281 -10.453125 0.289062 -10.574219 0.519531 -9.21875 L 1.488281 -3.480469 C 1.710938 -2.15625 0.617188 -1.617188 0.753906 -0.808594 L 0.773438 -0.695312 C 0.832031 -0.347656 1.152344 -0.195312 1.554688 -0.261719 L 7.753906 -1.308594 C 8.15625 -1.375 8.410156 -1.628906 8.351562 -1.972656 L 8.332031 -2.089844 C 8.199219 -2.894531 6.609375 -2.984375 6.386719 -4.308594 L 5.484375 -9.671875 C 5.269531 -10.9375 5.160156 -12.460938 6.082031 -12.617188 C 7.523438 -12.859375 6.796875 -9.953125 9.421875 -10.394531 C 11.09375 -10.675781 11.425781 -12.039062 11.183594 -13.480469 C 10.910156 -15.09375 9.691406 -16.164062 7.992188 -15.875 Z M 7.992188 -15.875 "/></g></g></g><g fill="#006c3f" fill-opacity="1"><g transform="translate(162.332421, 38.143576)"><g><path d="M 7.089844 -0.488281 C 11.132812 -0.917969 13.230469 -3.023438 12.972656 -5.433594 C 12.40625 -10.785156 5.1875 -7.898438 4.765625 -11.882812 C 4.675781 -12.726562 5.054688 -13.589844 5.953125 -13.683594 C 7.960938 -13.898438 7.445312 -9.875 10.265625 -10.175781 C 11.339844 -10.289062 12.132812 -11.136719 12.027344 -12.152344 C 11.824219 -14.042969 9.242188 -15.386719 5.550781 -14.992188 C 1.917969 -14.609375 -0.386719 -12.511719 -0.113281 -9.925781 C 0.484375 -4.285156 7.949219 -7.339844 8.355469 -3.535156 C 8.480469 -2.371094 7.828125 -1.859375 6.957031 -1.769531 C 4.542969 -1.511719 5.109375 -5.597656 2.203125 -5.289062 C 1.039062 -5.167969 0.195312 -4.519531 0.335938 -3.210938 C 0.550781 -1.175781 3.429688 -0.101562 7.089844 -0.488281 Z M 7.089844 -0.488281 "/></g></g></g><g fill="#006c3f" fill-opacity="1"><g transform="translate(175.874533, 36.724062)"><g><path d="M 6.816406 -0.0351562 C 10 -0.183594 11.550781 -2.628906 11.445312 -4.878906 C 11.417969 -5.433594 10.707031 -5.574219 10.324219 -5.03125 C 10.027344 -4.488281 9.585938 -3.910156 8.449219 -3.855469 C 7.71875 -3.824219 7.105469 -4.378906 7.058594 -5.371094 L 6.722656 -12.378906 L 9.730469 -12.523438 C 10.113281 -12.539062 10.390625 -12.847656 10.371094 -13.226562 L 10.339844 -13.867188 C 10.324219 -14.25 10.015625 -14.527344 9.636719 -14.507812 L 6.628906 -14.363281 L 6.488281 -17.3125 C 6.464844 -17.78125 6.132812 -18.058594 5.664062 -18.035156 L 4.992188 -18.003906 C 4.613281 -17.984375 4.304688 -17.675781 4.238281 -17.207031 C 3.945312 -15.40625 2.601562 -14.171875 0.820312 -14.085938 L 0.265625 -14.058594 C -0.144531 -14.039062 -0.394531 -13.765625 -0.375 -13.355469 L -0.34375 -12.714844 C -0.328125 -12.335938 -0.0195312 -12.054688 0.359375 -12.074219 L 1.46875 -12.128906 L 1.800781 -5.207031 C 1.96875 -1.675781 3.925781 0.105469 6.816406 -0.0351562 Z M 6.816406 -0.0351562 "/></g></g></g><g fill="#006c3f" fill-opacity="1"><g transform="translate(187.283259, 36.230861)"><g/></g></g><g fill="#006c3f" fill-opacity="1"><g transform="translate(192.49668, 35.973797)"><g><path d="M 10.703125 0.808594 C 16.191406 1.074219 18.960938 -2.390625 19.289062 -6.09375 C 19.363281 -7.054688 18.292969 -7.3125 17.707031 -6.695312 C 16.800781 -5.511719 15.339844 -3.707031 12.625 -3.839844 C 9.292969 -4 6.234375 -7.863281 6.507812 -13.558594 C 6.664062 -16.800781 8.445312 -18.554688 10.285156 -18.46875 C 13.789062 -18.296875 13.449219 -12.492188 17.101562 -12.316406 C 18.617188 -12.242188 19.570312 -13.160156 19.636719 -14.503906 C 19.785156 -17.570312 15.992188 -20.269531 11.4375 -20.488281 C 5.566406 -20.773438 1.5 -16.519531 1.214844 -10.59375 C 0.941406 -4.929688 4.863281 0.527344 10.703125 0.808594 Z M 10.703125 0.808594 "/></g></g></g><g fill="#006c3f" fill-opacity="1"><g transform="translate(211.367509, 36.905124)"><g><path d="M 8.597656 1.425781 C 12.832031 1.980469 16.730469 -0.542969 17.285156 -4.777344 C 17.84375 -9.035156 14.648438 -12.523438 10.300781 -13.09375 C 6.15625 -13.636719 2.089844 -11.195312 1.527344 -6.90625 C 0.972656 -2.703125 4.164062 0.84375 8.597656 1.425781 Z M 9.394531 0.0859375 C 7.046875 -0.222656 6.632812 -6.058594 6.941406 -8.40625 C 7.25 -10.753906 7.910156 -11.960938 9.300781 -11.78125 C 11.589844 -11.480469 12.015625 -5.496094 11.71875 -3.238281 C 11.433594 -1.0625 10.757812 0.261719 9.394531 0.0859375 Z M 9.394531 0.0859375 "/></g></g></g><g fill="#006c3f" fill-opacity="1"><g transform="translate(227.790069, 39.137559)"><g><path d="M 11.34375 -18.113281 C 13.410156 -17.707031 10.960938 -14.050781 14.34375 -13.382812 C 15.605469 -13.132812 16.394531 -13.960938 16.546875 -14.738281 C 16.929688 -16.6875 15.226562 -18.78125 12.675781 -19.28125 C 8.515625 -20.101562 6.230469 -17.871094 5.605469 -14.6875 L 5.320312 -13.253906 L 3.457031 -13.621094 C 3.085938 -13.695312 2.742188 -13.464844 2.667969 -13.089844 L 2.542969 -12.460938 C 2.46875 -12.085938 2.699219 -11.742188 3.074219 -11.667969 L 4.9375 -11.300781 L 3.230469 -2.640625 C 2.964844 -1.292969 1.75 -1.175781 1.59375 -0.371094 L 1.570312 -0.257812 C 1.503906 0.0859375 1.722656 0.339844 2.121094 0.417969 L 8.433594 1.660156 C 8.832031 1.738281 9.132812 1.589844 9.199219 1.246094 L 9.222656 1.132812 C 9.378906 0.328125 7.898438 -0.320312 8.164062 -1.667969 L 9.871094 -10.332031 L 12.996094 -9.714844 C 13.371094 -9.640625 13.710938 -9.871094 13.785156 -10.246094 L 13.910156 -10.875 C 13.984375 -11.25 13.753906 -11.59375 13.378906 -11.664062 L 10.140625 -12.304688 C 9.636719 -13.832031 9.222656 -18.53125 11.34375 -18.113281 Z M 11.34375 -18.113281 "/></g></g></g><g fill="#006c3f" fill-opacity="1"><g transform="translate(238.46405, 41.227615)"><g><path d="M 12.25 -17.515625 C 14.289062 -17.003906 11.660156 -13.472656 15.003906 -12.636719 C 16.253906 -12.324219 17.082031 -13.113281 17.273438 -13.878906 C 17.757812 -15.804688 16.164062 -17.984375 13.636719 -18.613281 C 9.527344 -19.644531 7.128906 -17.53125 6.34375 -14.382812 L 5.988281 -12.964844 L 4.144531 -13.425781 C 3.773438 -13.519531 3.421875 -13.304688 3.328125 -12.9375 L 3.171875 -12.3125 C 3.078125 -11.945312 3.292969 -11.589844 3.660156 -11.5 L 5.503906 -11.039062 L 3.359375 -2.472656 C 3.027344 -1.140625 1.808594 -1.085938 1.609375 -0.289062 L 1.582031 -0.175781 C 1.496094 0.164062 1.703125 0.425781 2.097656 0.523438 L 8.335938 2.085938 C 8.734375 2.1875 9.039062 2.050781 9.125 1.710938 L 9.152344 1.597656 C 9.351562 0.804688 7.90625 0.078125 8.238281 -1.253906 L 10.382812 -9.816406 L 13.472656 -9.042969 C 13.839844 -8.949219 14.195312 -9.164062 14.289062 -9.53125 L 14.445312 -10.15625 C 14.535156 -10.523438 14.324219 -10.878906 13.957031 -10.972656 L 10.75 -11.773438 C 10.324219 -13.324219 10.148438 -18.039062 12.25 -17.515625 Z M 12.25 -17.515625 "/></g></g></g><g fill="#006c3f" fill-opacity="1"><g transform="translate(248.96813, 43.792202)"><g><path d="M 13.710938 -0.550781 C 13 -0.0351562 11.734375 0.179688 10.339844 -0.253906 C 8.777344 -0.746094 7.820312 -1.992188 7.53125 -3.617188 C 8.359375 -3.324219 9.355469 -3.074219 10.382812 -2.9375 C 13.136719 -2.535156 15.484375 -3.578125 16.097656 -5.53125 C 16.863281 -7.984375 15.140625 -10.300781 11.808594 -11.3125 C 8.0625 -12.453125 4.035156 -10.742188 2.734375 -6.585938 C 1.417969 -2.375 3.457031 1.386719 7.585938 2.679688 C 11.601562 3.9375 14.054688 1.671875 14.621094 0.164062 C 14.839844 -0.441406 14.222656 -0.816406 13.710938 -0.550781 Z M 10.761719 -10.015625 C 11.683594 -9.730469 12.074219 -8.535156 11.71875 -7.296875 C 11.117188 -5.375 10.175781 -4.71875 8.878906 -4.878906 C 8.496094 -4.9375 7.988281 -5.066406 7.464844 -5.261719 C 7.507812 -5.980469 7.652344 -6.734375 7.886719 -7.488281 C 8.464844 -9.328125 9.617188 -10.375 10.761719 -10.015625 Z M 10.761719 -10.015625 "/></g></g></g><g fill="#006c3f" fill-opacity="1"><g transform="translate(262.325924, 47.952105)"><g><path d="M 13.714844 0.347656 C 12.972656 0.8125 11.699219 0.945312 10.335938 0.417969 C 8.808594 -0.171875 7.933594 -1.480469 7.753906 -3.117188 C 8.558594 -2.773438 9.535156 -2.457031 10.554688 -2.253906 C 13.273438 -1.671875 15.683594 -2.558594 16.421875 -4.46875 C 17.347656 -6.867188 15.777344 -9.292969 12.523438 -10.519531 C 8.859375 -11.902344 4.730469 -10.457031 3.160156 -6.394531 C 1.570312 -2.277344 3.359375 1.609375 7.394531 3.167969 C 11.320312 4.6875 13.917969 2.585938 14.578125 1.117188 C 14.835938 0.527344 14.246094 0.113281 13.714844 0.347656 Z M 11.394531 -9.292969 C 12.292969 -8.945312 12.605469 -7.726562 12.167969 -6.519531 C 11.441406 -4.636719 10.460938 -4.042969 9.175781 -4.289062 C 8.800781 -4.371094 8.300781 -4.535156 7.792969 -4.761719 C 7.882812 -5.480469 8.074219 -6.21875 8.359375 -6.957031 C 9.054688 -8.753906 10.273438 -9.726562 11.394531 -9.292969 Z M 11.394531 -9.292969 "/></g></g></g><g fill="#006c3f" fill-opacity="1"><g transform="translate(275.508678, 53.141541)"><g/></g></g><g fill="#006c3f" fill-opacity="1"><g transform="translate(280.36878, 55.045463)"><g><path d="M 9.429688 5.128906 C 14.324219 7.621094 18.273438 5.597656 20.089844 2.355469 C 20.554688 1.507812 19.683594 0.835938 18.894531 1.15625 C 17.582031 1.867188 15.511719 2.910156 13.085938 1.675781 C 10.117188 0.164062 8.910156 -4.617188 11.496094 -9.695312 C 12.96875 -12.585938 15.316406 -13.457031 16.957031 -12.625 C 20.082031 -11.03125 17.390625 -5.875 20.648438 -4.214844 C 22 -3.527344 23.246094 -3.976562 23.855469 -5.171875 C 25.25 -7.910156 22.898438 -11.925781 18.835938 -13.996094 C 13.597656 -16.660156 8.144531 -14.453125 5.453125 -9.164062 C 2.878906 -4.109375 4.21875 2.476562 9.429688 5.128906 Z M 9.429688 5.128906 "/></g></g></g><g fill="#006c3f" fill-opacity="1"><g transform="translate(297.196797, 63.636133)"><g><path d="M 7.257812 4.828125 C 10.890625 7.070312 15.480469 6.367188 17.722656 2.734375 C 19.980469 -0.921875 18.496094 -5.410156 14.765625 -7.714844 C 11.207031 -9.914062 6.496094 -9.351562 4.222656 -5.671875 C 1.996094 -2.066406 3.453125 2.476562 7.257812 4.828125 Z M 8.53125 3.929688 C 6.519531 2.6875 8.535156 -2.804688 9.777344 -4.816406 C 11.023438 -6.832031 12.121094 -7.664062 13.316406 -6.925781 C 15.28125 -5.714844 13.210938 -0.0859375 12.015625 1.855469 C 10.863281 3.71875 9.703125 4.652344 8.53125 3.929688 Z M 8.53125 3.929688 "/></g></g></g><g fill="#006c3f" fill-opacity="1"><g transform="translate(311.294896, 72.47895)"><g><path d="M 3.09375 2.515625 C 4.457031 3.46875 6.109375 3.554688 7.199219 1.996094 C 8.285156 0.4375 7.621094 -1.0625 6.253906 -2.015625 C 4.863281 -2.984375 3.230469 -3.09375 2.140625 -1.535156 C 1.054688 0.0234375 1.703125 1.542969 3.09375 2.515625 Z M 3.09375 2.515625 "/></g></g></g><path fill="#ff914d" d="M 207.085938 62.453125 C 207.089844 62.367188 207.007812 62.257812 206.921875 62.242188 C 206.785156 62.21875 206.648438 62.183594 206.507812 62.179688 C 205.972656 62.152344 205.4375 62.085938 204.894531 62.085938 C 204.1875 62.085938 203.480469 62.085938 202.777344 62.007812 C 202.375 61.960938 201.976562 61.9375 201.578125 61.898438 C 201.304688 61.871094 201.03125 61.832031 200.753906 61.785156 C 200.265625 61.699219 199.773438 61.601562 199.285156 61.511719 C 198.519531 61.375 197.773438 61.175781 197.035156 60.949219 C 196.234375 60.699219 195.484375 60.351562 194.738281 59.992188 C 194.5625 59.910156 194.40625 59.796875 194.234375 59.699219 C 194.175781 59.660156 194.128906 59.613281 194.097656 59.550781 C 193.875 59.085938 193.730469 58.601562 193.730469 58.070312 C 193.726562 57.109375 193.835938 56.160156 194.011719 55.226562 C 194.234375 54.042969 194.496094 52.867188 194.765625 51.695312 C 195.070312 50.359375 195.359375 49.019531 195.601562 47.671875 C 195.640625 47.46875 195.667969 47.261719 195.699219 47.058594 C 195.699219 47.03125 195.699219 47.003906 195.691406 46.972656 C 195.671875 46.847656 195.609375 46.769531 195.492188 46.730469 C 195.386719 46.691406 195.300781 46.730469 195.230469 46.804688 C 195.183594 46.855469 195.136719 46.90625 195.097656 46.964844 C 195.019531 47.097656 194.941406 47.226562 194.875 47.367188 C 194.351562 48.464844 193.828125 49.5625 193.304688 50.660156 C 192.621094 52.113281 191.90625 53.546875 191.136719 54.957031 C 190.875 55.429688 190.605469 55.898438 190.304688 56.351562 C 189.9375 56.90625 189.507812 57.410156 189.027344 57.875 C 188.964844 57.941406 188.890625 57.960938 188.808594 57.953125 C 188.25 57.914062 187.707031 57.824219 187.164062 57.699219 C 186.316406 57.503906 185.492188 57.214844 184.695312 56.867188 C 183.550781 56.371094 182.457031 55.78125 181.398438 55.121094 C 180.878906 54.800781 180.371094 54.46875 179.859375 54.140625 C 179.257812 53.75 178.65625 53.347656 178.054688 52.957031 C 177.859375 52.824219 177.65625 52.707031 177.453125 52.585938 C 177.394531 52.550781 177.328125 52.523438 177.265625 52.519531 C 177.179688 52.503906 177.101562 52.539062 177.054688 52.617188 C 177.015625 52.683594 177.015625 52.785156 177.066406 52.847656 C 177.132812 52.917969 177.207031 52.984375 177.277344 53.042969 C 177.511719 53.230469 177.761719 53.414062 177.988281 53.609375 C 178.652344 54.179688 179.296875 54.769531 179.914062 55.390625 C 180.207031 55.683594 180.507812 55.964844 180.800781 56.265625 C 181.371094 56.835938 181.941406 57.398438 182.488281 57.984375 C 183.621094 59.1875 184.601562 60.511719 185.597656 61.824219 C 185.648438 61.890625 185.695312 61.960938 185.734375 62.035156 C 185.753906 62.066406 185.757812 62.113281 185.757812 62.152344 C 185.757812 62.203125 185.746094 62.261719 185.734375 62.316406 C 185.535156 63.007812 185.269531 63.675781 184.871094 64.285156 C 184.53125 64.808594 184.15625 65.304688 183.746094 65.773438 C 183.175781 66.421875 182.5625 67.015625 181.90625 67.578125 C 181.246094 68.148438 180.578125 68.710938 179.898438 69.261719 C 178.898438 70.070312 177.886719 70.867188 176.886719 71.671875 C 176.78125 71.757812 176.675781 71.851562 176.578125 71.953125 C 176.53125 72 176.5 72.066406 176.472656 72.132812 C 176.433594 72.210938 176.484375 72.308594 176.570312 72.328125 C 176.636719 72.339844 176.707031 72.351562 176.773438 72.339844 C 176.917969 72.300781 177.066406 72.253906 177.207031 72.195312 C 177.664062 72.007812 178.121094 71.8125 178.566406 71.574219 C 179.554688 71.050781 180.535156 70.507812 181.496094 69.925781 C 182.097656 69.5625 182.707031 69.195312 183.3125 68.839844 C 184.25 68.300781 185.203125 67.808594 186.21875 67.429688 C 186.863281 67.1875 187.523438 66.976562 188.207031 66.847656 C 188.34375 66.820312 188.480469 66.800781 188.617188 66.789062 C 188.800781 66.769531 188.976562 66.8125 189.128906 66.925781 C 189.257812 67.023438 189.394531 67.128906 189.507812 67.246094 C 190.042969 67.789062 190.535156 68.371094 190.914062 69.039062 C 191.050781 69.28125 191.1875 69.515625 191.316406 69.765625 C 191.90625 70.875 192.410156 72.03125 192.882812 73.195312 C 193.242188 74.097656 193.621094 74.984375 194.019531 75.871094 C 194.3125 76.527344 194.609375 77.1875 194.816406 77.871094 C 194.835938 77.9375 194.863281 78.011719 194.902344 78.0625 C 194.941406 78.113281 195 78.160156 195.058594 78.195312 C 195.203125 78.257812 195.359375 78.167969 195.367188 78.023438 C 195.367188 77.925781 195.367188 77.828125 195.359375 77.734375 C 195.320312 77.210938 195.269531 76.6875 195.175781 76.167969 C 195.070312 75.5625 194.949219 74.96875 194.828125 74.375 C 194.738281 73.898438 194.632812 73.425781 194.546875 72.949219 C 194.425781 72.253906 194.304688 71.554688 194.183594 70.863281 C 194.046875 70.097656 193.953125 69.324219 193.90625 68.554688 C 193.847656 67.574219 193.847656 66.585938 193.980469 65.609375 C 194.03125 65.238281 194.1875 64.929688 194.527344 64.734375 C 194.902344 64.519531 195.289062 64.328125 195.679688 64.164062 C 196.414062 63.863281 197.164062 63.636719 197.9375 63.480469 C 198.542969 63.355469 199.160156 63.25 199.78125 63.191406 C 200.355469 63.140625 200.9375 63.121094 201.519531 63.085938 C 202.214844 63.046875 202.898438 63.015625 203.59375 62.976562 C 204.285156 62.929688 204.972656 62.882812 205.664062 62.832031 C 205.96875 62.804688 206.273438 62.78125 206.574219 62.738281 C 206.699219 62.726562 206.824219 62.695312 206.933594 62.65625 C 207.03125 62.621094 207.070312 62.542969 207.085938 62.453125 Z M 202.402344 62.5625 C 201.820312 62.589844 201.238281 62.628906 200.65625 62.640625 C 200.003906 62.660156 199.355469 62.734375 198.714844 62.839844 C 198.046875 62.941406 197.386719 63.09375 196.738281 63.308594 C 196.359375 63.433594 195.980469 63.570312 195.621094 63.746094 C 195.191406 63.964844 194.757812 64.183594 194.332031 64.414062 C 194.109375 64.53125 193.925781 64.703125 193.769531 64.90625 C 193.703125 64.996094 193.652344 65.089844 193.625 65.199219 C 193.488281 65.710938 193.421875 66.230469 193.402344 66.753906 C 193.378906 67.4375 193.378906 68.109375 193.449219 68.789062 C 193.484375 69.101562 193.507812 69.421875 193.535156 69.738281 C 193.574219 70.234375 193.671875 70.726562 193.757812 71.214844 C 193.875 71.929688 194.003906 72.632812 194.136719 73.339844 C 194.226562 73.820312 194.332031 74.289062 194.425781 74.765625 C 194.515625 75.222656 194.609375 75.6875 194.699219 76.152344 C 194.707031 76.179688 194.691406 76.207031 194.691406 76.238281 C 194.628906 76.171875 194.585938 76.085938 194.554688 75.996094 C 194.148438 75.042969 193.75 74.085938 193.371094 73.117188 C 192.894531 71.894531 192.363281 70.691406 191.742188 69.527344 C 191.605469 69.273438 191.460938 69.019531 191.316406 68.769531 C 190.925781 68.097656 190.433594 67.496094 189.871094 66.957031 C 189.691406 66.78125 189.492188 66.636719 189.277344 66.511719 C 188.964844 66.335938 188.636719 66.292969 188.277344 66.355469 C 187.558594 66.492188 186.851562 66.695312 186.164062 66.953125 C 185.097656 67.34375 184.085938 67.855469 183.105469 68.421875 C 182.496094 68.777344 181.886719 69.140625 181.285156 69.507812 C 180.554688 69.953125 179.808594 70.378906 179.054688 70.789062 C 179.015625 70.808594 178.632812 71.050781 178.449219 71.109375 C 178.402344 71.125 178.390625 71.117188 178.414062 71.085938 C 178.421875 71.070312 178.429688 71.066406 178.441406 71.050781 C 178.570312 70.933594 179.074219 70.554688 179.179688 70.46875 C 180.136719 69.738281 181.058594 68.964844 181.972656 68.1875 C 182.765625 67.515625 183.515625 66.800781 184.195312 66.015625 C 184.511719 65.648438 184.8125 65.269531 185.074219 64.867188 C 185.503906 64.207031 185.8125 63.480469 186.085938 62.738281 C 186.097656 62.699219 186.113281 62.660156 186.125 62.621094 C 186.191406 62.375 186.191406 62.132812 186.078125 61.898438 C 186.007812 61.746094 185.9375 61.597656 185.84375 61.457031 C 185.628906 61.136719 185.414062 60.816406 185.183594 60.503906 C 184.011719 58.921875 182.710938 57.457031 181.292969 56.089844 C 180.964844 55.777344 180.640625 55.453125 180.3125 55.132812 C 180.3125 55.132812 180.292969 55.121094 180.296875 55.109375 C 180.296875 55.082031 180.34375 55.089844 180.363281 55.09375 C 180.417969 55.109375 180.46875 55.128906 180.515625 55.160156 C 180.820312 55.351562 181.121094 55.539062 181.429688 55.730469 C 182.464844 56.351562 183.523438 56.921875 184.632812 57.390625 C 185.476562 57.75 186.339844 58.039062 187.230469 58.242188 C 187.648438 58.339844 188.074219 58.390625 188.507812 58.425781 C 188.714844 58.4375 188.917969 58.425781 189.128906 58.386719 C 189.226562 58.363281 189.308594 58.320312 189.382812 58.253906 C 189.742188 57.886719 190.101562 57.523438 190.402344 57.109375 C 190.734375 56.652344 191.042969 56.175781 191.324219 55.675781 C 191.914062 54.644531 192.460938 53.585938 192.980469 52.519531 C 193.5625 51.320312 194.128906 50.125 194.707031 48.929688 C 194.765625 48.804688 194.828125 48.6875 194.894531 48.5625 C 194.902344 48.550781 194.914062 48.542969 194.929688 48.535156 C 194.933594 48.554688 194.953125 48.574219 194.949219 48.589844 C 194.777344 49.386719 194.621094 50.191406 194.4375 50.980469 C 194.136719 52.289062 193.847656 53.597656 193.585938 54.917969 C 193.484375 55.449219 193.398438 55.984375 193.332031 56.515625 C 193.265625 57.0625 193.242188 57.621094 193.253906 58.175781 C 193.265625 58.621094 193.339844 59.058594 193.523438 59.46875 C 193.542969 59.523438 193.566406 59.570312 193.585938 59.621094 C 193.671875 59.910156 193.863281 60.089844 194.117188 60.230469 C 194.3125 60.332031 194.503906 60.445312 194.699219 60.542969 C 196.046875 61.203125 197.457031 61.679688 198.9375 61.957031 C 199.414062 62.046875 199.886719 62.144531 200.363281 62.238281 C 200.648438 62.289062 200.9375 62.328125 201.226562 62.359375 C 201.550781 62.398438 201.886719 62.425781 202.21875 62.464844 C 202.34375 62.480469 202.460938 62.511719 202.585938 62.542969 C 202.59375 62.542969 202.597656 62.5625 202.613281 62.589844 C 202.535156 62.558594 202.46875 62.558594 202.402344 62.5625 Z M 202.402344 62.5625 " fill-opacity="1" fill-rule="nonzero"/><g clip-path="url(#cd9cc19974)"><path fill="#ff914d" d="M 213.65625 73.257812 C 213.625 73.195312 213.597656 73.132812 213.566406 73.074219 C 213.1875 72.496094 212.832031 71.902344 212.488281 71.308594 C 212.441406 71.230469 212.433594 71.164062 212.46875 71.070312 C 212.664062 70.628906 212.878906 70.195312 213.140625 69.785156 C 213.273438 69.574219 213.402344 69.359375 213.53125 69.148438 C 213.566406 69.089844 213.597656 69.023438 213.625 68.964844 C 213.632812 68.945312 213.625 68.914062 213.625 68.902344 C 213.617188 68.855469 213.558594 68.808594 213.53125 68.816406 C 213.46875 68.828125 213.394531 68.835938 213.335938 68.859375 C 212.839844 69.050781 212.324219 69.128906 211.808594 69.203125 C 211.617188 69.226562 211.421875 69.246094 211.230469 69.222656 C 211.101562 69.117188 210.96875 69.011719 210.84375 68.914062 C 210.800781 68.882812 210.761719 68.839844 210.722656 68.800781 C 210.402344 68.476562 210.054688 68.179688 209.785156 67.808594 C 209.761719 67.777344 209.726562 67.75 209.699219 67.71875 C 209.660156 67.675781 209.578125 67.65625 209.550781 67.683594 C 209.519531 67.722656 209.480469 67.769531 209.464844 67.820312 C 209.453125 67.875 209.460938 67.933594 209.460938 67.984375 C 209.453125 68.246094 209.464844 68.507812 209.4375 68.769531 C 209.40625 69.128906 209.347656 69.484375 209.300781 69.835938 C 209.296875 69.894531 209.269531 69.941406 209.210938 69.964844 C 209.007812 70.078125 208.804688 70.207031 208.597656 70.304688 C 208.136719 70.527344 207.679688 70.757812 207.183594 70.894531 C 207.15625 70.902344 207.132812 70.914062 207.109375 70.933594 C 207.085938 70.960938 207.058594 71 207.046875 71.03125 C 207.03125 71.078125 207.066406 71.109375 207.097656 71.136719 C 207.132812 71.164062 207.171875 71.183594 207.210938 71.195312 C 207.851562 71.417969 208.4375 71.75 209.046875 72.050781 C 209.171875 72.117188 209.238281 72.203125 209.261719 72.332031 C 209.300781 72.5625 209.339844 72.796875 209.375 73.027344 C 209.40625 73.261719 209.417969 73.496094 209.453125 73.726562 C 209.472656 73.878906 209.5 74.027344 209.53125 74.179688 C 209.542969 74.242188 209.578125 74.308594 209.609375 74.367188 C 209.648438 74.453125 209.753906 74.472656 209.8125 74.414062 C 209.851562 74.375 209.890625 74.335938 209.921875 74.296875 C 210.164062 74.015625 210.40625 73.726562 210.65625 73.445312 C 210.8125 73.269531 210.976562 73.097656 211.132812 72.929688 C 211.203125 72.851562 211.289062 72.824219 211.394531 72.84375 C 211.695312 72.902344 211.988281 72.957031 212.289062 73.007812 C 212.578125 73.058594 212.851562 73.136719 213.121094 73.257812 C 213.21875 73.300781 213.332031 73.335938 213.433594 73.367188 C 213.488281 73.378906 213.546875 73.375 213.597656 73.378906 C 213.625 73.375 213.675781 73.300781 213.65625 73.257812 Z M 212.828125 72.765625 C 212.710938 72.785156 212.625 72.699219 212.527344 72.660156 C 212.140625 72.492188 211.742188 72.394531 211.328125 72.359375 C 211.140625 72.347656 210.976562 72.398438 210.839844 72.53125 C 210.53125 72.832031 210.25 73.152344 209.980469 73.484375 C 209.96875 73.496094 209.9375 73.492188 209.910156 73.492188 C 209.898438 73.492188 209.882812 73.476562 209.882812 73.464844 C 209.878906 73.4375 209.878906 73.414062 209.871094 73.378906 C 209.839844 73.09375 209.8125 72.804688 209.765625 72.515625 C 209.734375 72.3125 209.667969 72.117188 209.621094 71.914062 C 209.601562 71.832031 209.539062 71.769531 209.464844 71.730469 C 208.996094 71.503906 208.53125 71.253906 208.027344 71.105469 C 208.027344 71.105469 207.953125 71.085938 207.921875 71.070312 C 207.882812 71.050781 207.894531 70.972656 207.933594 70.972656 C 208.175781 70.949219 209.242188 70.527344 209.550781 70.3125 C 209.695312 70.214844 209.785156 70.097656 209.804688 69.914062 C 209.832031 69.703125 209.851562 69.503906 209.851562 69.292969 C 209.851562 69.097656 209.859375 68.90625 209.871094 68.710938 C 209.871094 68.703125 209.890625 68.699219 209.902344 68.691406 C 209.917969 68.683594 209.929688 68.683594 209.9375 68.691406 C 210.074219 68.828125 210.203125 68.972656 210.34375 69.101562 C 210.472656 69.226562 210.609375 69.34375 210.746094 69.457031 C 211.035156 69.691406 211.015625 69.722656 211.5 69.699219 C 211.910156 69.679688 212.316406 69.601562 212.714844 69.46875 C 212.730469 69.464844 212.742188 69.476562 212.753906 69.484375 C 212.761719 69.488281 212.769531 69.507812 212.761719 69.515625 C 212.730469 69.574219 212.703125 69.640625 212.664062 69.699219 C 212.421875 70.085938 212.1875 70.476562 212.015625 70.902344 C 211.988281 70.96875 211.957031 71.027344 211.945312 71.089844 C 211.917969 71.1875 211.917969 71.28125 211.96875 71.371094 C 212.007812 71.445312 212.046875 71.515625 212.09375 71.589844 C 212.285156 71.875 212.472656 72.171875 212.671875 72.453125 C 212.8125 72.6875 212.859375 72.765625 212.828125 72.765625 Z M 212.828125 72.765625 " fill-opacity="1" fill-rule="nonzero"/></g><g clip-path="url(#572237fd0e)"><path fill="#ff914d" d="M 175.667969 63.308594 C 176.289062 63.296875 176.910156 63.289062 177.53125 63.277344 C 178.128906 63.257812 178.722656 63.222656 179.296875 63.082031 C 179.578125 63.007812 179.855469 62.917969 180.136719 62.839844 C 180.257812 62.800781 180.363281 62.738281 180.449219 62.648438 C 180.632812 62.460938 180.574219 62.25 180.402344 62.113281 C 180.359375 62.078125 180.3125 62.046875 180.257812 62.035156 C 180.128906 61.988281 179.996094 61.949219 179.859375 61.921875 C 179.617188 61.871094 179.371094 61.851562 179.121094 61.84375 C 178.460938 61.832031 177.792969 61.8125 177.132812 61.796875 C 176.609375 61.792969 176.082031 61.792969 175.558594 61.796875 C 175.238281 61.796875 174.921875 61.824219 174.601562 61.832031 C 173.4375 61.855469 172.28125 61.910156 171.125 62.015625 C 170.972656 62.027344 170.824219 62.066406 170.671875 62.09375 C 170.585938 62.105469 170.523438 62.152344 170.457031 62.203125 C 170.339844 62.300781 170.320312 62.503906 170.429688 62.609375 C 170.488281 62.667969 170.554688 62.71875 170.625 62.753906 C 170.777344 62.820312 170.933594 62.878906 171.089844 62.921875 C 171.71875 63.101562 172.367188 63.183594 173.011719 63.238281 C 173.894531 63.289062 174.777344 63.34375 175.667969 63.308594 Z M 171.328125 62.460938 C 171.292969 62.445312 171.292969 62.433594 171.320312 62.425781 C 171.332031 62.417969 171.347656 62.417969 171.359375 62.414062 C 171.398438 62.40625 171.445312 62.398438 171.484375 62.398438 C 172.367188 62.367188 173.25 62.339844 174.132812 62.308594 C 174.519531 62.296875 174.902344 62.28125 175.289062 62.261719 C 176.183594 62.222656 177.085938 62.25 177.984375 62.277344 C 178.441406 62.289062 178.894531 62.300781 179.351562 62.320312 C 179.5 62.328125 179.65625 62.320312 179.796875 62.398438 C 179.808594 62.40625 179.828125 62.417969 179.828125 62.425781 C 179.816406 62.445312 179.808594 62.472656 179.789062 62.484375 C 179.75 62.503906 179.710938 62.519531 179.671875 62.53125 C 179.34375 62.636719 179.003906 62.699219 178.65625 62.734375 C 177.664062 62.824219 176.667969 62.851562 175.675781 62.859375 C 175.09375 62.84375 174.511719 62.84375 173.9375 62.820312 C 173.191406 62.785156 172.445312 62.726562 171.710938 62.582031 C 171.582031 62.550781 171.449219 62.519531 171.328125 62.460938 Z M 171.328125 62.460938 " fill-opacity="1" fill-rule="nonzero"/></g><g clip-path="url(#cd334f777d)"><path fill="#ff914d" d="M 184.050781 45.78125 C 184.289062 46.765625 184.59375 47.726562 184.941406 48.671875 C 185.269531 49.570312 185.648438 50.445312 185.9375 51.355469 C 185.957031 51.40625 185.976562 51.460938 185.996094 51.511719 C 186.183594 51.96875 186.40625 52.421875 186.695312 52.824219 C 186.804688 52.984375 186.929688 53.132812 187.09375 53.246094 C 187.296875 53.375 187.511719 53.304688 187.601562 53.082031 C 187.648438 52.976562 187.648438 52.867188 187.644531 52.683594 C 187.636719 52.617188 187.628906 52.472656 187.601562 52.34375 C 187.550781 52.074219 187.492188 51.800781 187.421875 51.53125 C 187.035156 50.058594 186.582031 48.609375 186.074219 47.175781 C 185.746094 46.246094 185.355469 45.351562 184.890625 44.480469 C 184.773438 44.265625 184.648438 44.050781 184.511719 43.835938 C 184.457031 43.753906 184.390625 43.675781 184.320312 43.617188 C 184.191406 43.5 183.980469 43.539062 183.894531 43.695312 C 183.84375 43.792969 183.808594 43.898438 183.808594 44.015625 C 183.816406 44.265625 183.804688 44.515625 183.835938 44.761719 C 183.902344 45.101562 183.96875 45.441406 184.050781 45.78125 Z M 184.367188 44.449219 C 184.390625 44.4375 184.414062 44.460938 184.425781 44.488281 C 184.464844 44.558594 184.511719 44.632812 184.550781 44.703125 C 184.894531 45.429688 185.234375 46.15625 185.511719 46.90625 C 185.824219 47.765625 186.152344 48.613281 186.433594 49.484375 C 186.714844 50.355469 186.921875 51.238281 187.140625 52.125 C 187.164062 52.230469 187.171875 52.34375 187.199219 52.5 C 187.199219 52.492188 187.199219 52.539062 187.199219 52.578125 C 187.199219 52.585938 187.183594 52.605469 187.179688 52.605469 C 187.164062 52.605469 187.152344 52.605469 187.140625 52.597656 C 187.125 52.589844 187.113281 52.585938 187.105469 52.570312 C 186.839844 52.164062 186.589844 51.753906 186.394531 51.308594 C 185.957031 50.296875 185.589844 49.25 185.242188 48.195312 C 184.941406 47.273438 184.667969 46.34375 184.457031 45.402344 C 184.390625 45.109375 184.328125 44.808594 184.328125 44.5 C 184.328125 44.488281 184.347656 44.457031 184.367188 44.449219 Z M 184.367188 44.449219 " fill-opacity="1" fill-rule="nonzero"/></g><path fill="#ff914d" d="M 198.464844 57.039062 C 198.578125 57.03125 198.683594 57 198.78125 56.941406 C 199.003906 56.796875 199.222656 56.664062 199.441406 56.515625 C 201.1875 55.304688 202.914062 54.054688 204.625 52.792969 C 204.941406 52.566406 205.242188 52.324219 205.523438 52.0625 C 205.644531 51.949219 205.765625 51.832031 205.875 51.714844 C 206.019531 51.5625 206.136719 51.394531 206.214844 51.199219 C 206.273438 51.039062 206.203125 50.890625 206.050781 50.824219 C 205.933594 50.773438 205.808594 50.773438 205.6875 50.804688 C 205.503906 50.859375 205.320312 50.917969 205.136719 50.996094 C 204.175781 51.386719 203.273438 51.902344 202.453125 52.546875 C 201.992188 52.910156 201.53125 53.296875 201.074219 53.667969 C 200.910156 53.800781 200.753906 53.929688 200.589844 54.054688 C 200.046875 54.480469 199.519531 54.925781 199.023438 55.410156 C 198.753906 55.671875 198.53125 55.972656 198.316406 56.277344 C 198.238281 56.390625 198.171875 56.515625 198.140625 56.652344 C 198.101562 56.847656 198.230469 57.042969 198.464844 57.039062 Z M 198.949219 56.214844 C 198.96875 56.179688 198.984375 56.140625 199.003906 56.109375 C 199.171875 55.886719 199.355469 55.683594 199.566406 55.5 C 200.703125 54.46875 201.914062 53.527344 203.15625 52.625 C 203.855469 52.121094 204.605469 51.722656 205.40625 51.402344 C 205.445312 51.386719 205.484375 51.367188 205.523438 51.359375 C 205.546875 51.355469 205.574219 51.375 205.601562 51.382812 C 205.601562 51.382812 205.601562 51.40625 205.59375 51.421875 C 205.5625 51.464844 205.535156 51.519531 205.503906 51.550781 C 205.34375 51.707031 205.195312 51.863281 205.019531 52.007812 C 204.71875 52.25 204.410156 52.484375 204.097656 52.707031 C 203.109375 53.414062 202.113281 54.121094 201.121094 54.8125 C 200.488281 55.257812 199.839844 55.683594 199.199219 56.117188 C 199.132812 56.160156 199.0625 56.199219 198.988281 56.246094 C 198.9375 56.257812 198.929688 56.253906 198.949219 56.214844 Z M 198.949219 56.214844 " fill-opacity="1" fill-rule="nonzero"/><path fill="#ff914d" d="M 205.960938 73.464844 C 205.769531 73.230469 205.574219 72.996094 205.363281 72.773438 C 204.914062 72.300781 204.410156 71.890625 203.898438 71.492188 C 202.808594 70.640625 201.644531 69.886719 200.460938 69.167969 C 200.269531 69.050781 200.074219 68.945312 199.878906 68.847656 C 199.617188 68.71875 199.355469 68.601562 199.074219 68.527344 C 198.996094 68.507812 198.910156 68.496094 198.882812 68.488281 C 198.640625 68.476562 198.472656 68.664062 198.570312 68.894531 C 198.589844 68.945312 198.621094 68.992188 198.660156 69.03125 C 198.746094 69.121094 198.832031 69.214844 198.921875 69.292969 C 199.34375 69.632812 199.761719 69.980469 200.1875 70.304688 C 200.988281 70.921875 201.800781 71.523438 202.597656 72.144531 C 203.476562 72.824219 204.417969 73.40625 205.371094 73.96875 C 205.457031 74.019531 205.542969 74.066406 205.625 74.105469 C 205.691406 74.132812 205.757812 74.160156 205.824219 74.171875 C 205.925781 74.199219 206.019531 74.164062 206.089844 74.09375 C 206.175781 74.007812 206.203125 73.898438 206.148438 73.785156 C 206.097656 73.675781 206.039062 73.5625 205.960938 73.464844 Z M 205.125 73.269531 C 205.097656 73.277344 205.0625 73.277344 205.042969 73.269531 C 204.199219 72.765625 203.378906 72.234375 202.597656 71.632812 C 201.773438 71 200.957031 70.367188 200.140625 69.730469 C 199.890625 69.535156 199.65625 69.320312 199.414062 69.117188 C 199.414062 69.117188 199.414062 69.097656 199.421875 69.089844 C 199.433594 69.082031 199.445312 69.070312 199.460938 69.078125 C 199.484375 69.082031 199.511719 69.089844 199.503906 69.089844 C 199.804688 69.207031 200.0625 69.359375 200.304688 69.507812 C 201.199219 70.066406 202.0625 70.660156 202.898438 71.292969 C 203.359375 71.648438 203.816406 72.011719 204.265625 72.378906 C 204.582031 72.632812 204.863281 72.914062 205.125 73.214844 C 205.148438 73.242188 205.15625 73.261719 205.125 73.269531 Z M 205.125 73.269531 " fill-opacity="1" fill-rule="nonzero"/><g clip-path="url(#d5791d4502)"><path fill="#ff914d" d="M 173.453125 46.382812 C 173.554688 46.429688 173.667969 46.429688 173.777344 46.429688 C 174.152344 46.421875 174.476562 46.574219 174.777344 46.785156 C 175 46.941406 175.152344 47.148438 175.210938 47.417969 C 175.238281 47.542969 175.261719 47.660156 175.277344 47.785156 C 175.300781 48.007812 175.316406 48.222656 175.339844 48.445312 C 175.347656 48.53125 175.359375 48.609375 175.375 48.691406 C 175.382812 48.738281 175.445312 48.785156 175.492188 48.792969 C 175.550781 48.796875 175.601562 48.777344 175.636719 48.730469 C 175.667969 48.6875 175.695312 48.640625 175.722656 48.59375 C 175.761719 48.511719 175.800781 48.417969 175.839844 48.328125 C 176.003906 47.980469 176.238281 47.699219 176.550781 47.484375 C 176.773438 47.328125 177.015625 47.246094 177.289062 47.261719 C 177.527344 47.273438 177.753906 47.300781 177.96875 47.410156 C 178.152344 47.503906 178.34375 47.585938 178.539062 47.667969 C 178.59375 47.6875 178.644531 47.691406 178.695312 47.699219 C 178.78125 47.710938 178.859375 47.613281 178.832031 47.535156 C 178.8125 47.46875 178.789062 47.40625 178.753906 47.347656 C 178.664062 47.207031 178.558594 47.078125 178.46875 46.941406 C 178.355469 46.769531 178.238281 46.59375 178.140625 46.410156 C 177.957031 46.078125 177.949219 45.722656 178.0625 45.363281 C 178.160156 45.042969 178.324219 44.757812 178.566406 44.519531 C 178.625 44.460938 178.683594 44.402344 178.734375 44.34375 C 178.75 44.332031 178.753906 44.3125 178.761719 44.296875 C 178.773438 44.253906 178.773438 44.199219 178.75 44.160156 C 178.742188 44.148438 178.734375 44.136719 178.722656 44.128906 C 178.675781 44.101562 178.617188 44.074219 178.574219 44.082031 C 178.507812 44.089844 178.433594 44.117188 178.375 44.148438 C 178.089844 44.285156 177.78125 44.355469 177.460938 44.410156 C 177.207031 44.457031 176.964844 44.410156 176.734375 44.3125 C 176.464844 44.195312 176.222656 44.035156 176.007812 43.839844 C 175.878906 43.722656 175.753906 43.585938 175.628906 43.453125 C 175.53125 43.355469 175.441406 43.253906 175.347656 43.152344 C 175.308594 43.113281 175.203125 43.109375 175.152344 43.132812 C 175.085938 43.171875 175.046875 43.234375 175.054688 43.304688 C 175.066406 43.414062 175.09375 43.519531 175.125 43.625 C 175.199219 43.855469 175.210938 44.082031 175.21875 44.316406 C 175.21875 44.625 175.113281 44.886719 174.917969 45.117188 C 174.800781 45.253906 174.667969 45.378906 174.519531 45.476562 C 174.328125 45.59375 174.132812 45.691406 173.929688 45.78125 C 173.804688 45.835938 173.675781 45.886719 173.550781 45.953125 C 173.492188 45.984375 173.433594 46.023438 173.386719 46.070312 C 173.292969 46.167969 173.335938 46.332031 173.453125 46.382812 Z M 174.378906 45.980469 C 174.414062 45.960938 174.453125 45.941406 174.492188 45.921875 C 174.636719 45.835938 174.777344 45.75 174.917969 45.660156 C 175.082031 45.554688 175.210938 45.410156 175.328125 45.253906 C 175.53125 45 175.628906 44.699219 175.667969 44.375 C 175.683594 44.292969 175.683594 44.214844 175.6875 44.128906 C 175.6875 44.089844 175.703125 44.074219 175.734375 44.074219 C 175.746094 44.074219 175.765625 44.074219 175.773438 44.082031 C 175.941406 44.246094 176.132812 44.382812 176.335938 44.5 C 176.804688 44.789062 177.304688 44.878906 177.847656 44.722656 C 177.871094 44.71875 177.898438 44.722656 177.925781 44.730469 C 177.925781 44.769531 177.925781 44.808594 177.910156 44.839844 C 177.886719 44.90625 177.839844 44.957031 177.8125 45.023438 C 177.761719 45.148438 177.710938 45.28125 177.667969 45.410156 C 177.558594 45.769531 177.585938 46.117188 177.742188 46.457031 C 177.800781 46.582031 177.859375 46.703125 177.910156 46.835938 C 177.917969 46.855469 177.925781 46.894531 177.910156 46.90625 C 177.898438 46.921875 177.859375 46.921875 177.832031 46.921875 C 177.792969 46.914062 177.527344 46.863281 177.429688 46.847656 C 176.867188 46.785156 176.402344 46.992188 176.007812 47.378906 C 175.921875 47.464844 175.84375 47.566406 175.761719 47.660156 C 175.753906 47.667969 175.726562 47.671875 175.722656 47.667969 C 175.703125 47.652344 175.683594 47.632812 175.675781 47.613281 C 175.65625 47.523438 175.640625 47.425781 175.621094 47.328125 C 175.550781 46.875 175.300781 46.542969 174.902344 46.3125 C 174.734375 46.214844 174.558594 46.144531 174.386719 46.050781 C 174.367188 46.039062 174.355469 46.011719 174.339844 45.984375 C 174.355469 46 174.375 45.980469 174.378906 45.980469 Z M 174.378906 45.980469 " fill-opacity="1" fill-rule="nonzero"/></g><path fill="#ff914d" d="M 187.042969 72.394531 C 186.957031 72.378906 186.878906 72.394531 186.8125 72.457031 C 186.792969 72.476562 186.773438 72.496094 186.753906 72.515625 C 186.648438 72.679688 186.53125 72.835938 186.441406 73.007812 C 186.269531 73.308594 186.125 73.621094 186.007812 73.949219 C 185.609375 75.015625 185.25 76.085938 184.910156 77.167969 C 184.652344 77.957031 184.484375 78.769531 184.339844 79.585938 C 184.289062 79.875 184.242188 80.160156 184.195312 80.449219 C 184.183594 80.546875 184.175781 80.640625 184.214844 80.738281 C 184.242188 80.800781 184.289062 80.855469 184.351562 80.882812 C 184.4375 80.90625 184.515625 80.882812 184.582031 80.824219 C 184.628906 80.769531 184.671875 80.71875 184.707031 80.660156 C 184.882812 80.34375 185.066406 80.039062 185.230469 79.71875 C 185.535156 79.097656 185.796875 78.453125 186.035156 77.808594 C 186.367188 76.886719 186.660156 75.945312 186.851562 74.984375 C 186.957031 74.453125 187.046875 73.921875 187.140625 73.394531 C 187.179688 73.175781 187.199219 72.957031 187.230469 72.753906 C 187.222656 72.695312 187.222656 72.65625 187.21875 72.609375 C 187.21875 72.511719 187.125 72.40625 187.042969 72.394531 Z M 186.378906 75.144531 C 186.230469 75.792969 186.074219 76.441406 185.917969 77.082031 C 185.871094 77.257812 185.816406 77.429688 185.765625 77.597656 C 185.515625 78.316406 185.242188 79.023438 184.894531 79.703125 C 184.871094 79.75 184.855469 79.808594 184.796875 79.828125 C 184.792969 79.828125 184.765625 79.828125 184.765625 79.828125 C 184.765625 79.777344 184.753906 79.71875 184.765625 79.664062 C 184.941406 78.78125 185.132812 77.90625 185.40625 77.050781 C 185.714844 76.074219 186.058594 75.105469 186.425781 74.152344 C 186.453125 74.085938 186.539062 73.8125 186.589844 73.753906 C 186.597656 73.746094 186.621094 73.734375 186.621094 73.738281 C 186.636719 73.753906 186.660156 73.773438 186.660156 73.792969 C 186.667969 73.882812 186.460938 74.785156 186.378906 75.144531 Z M 186.378906 75.144531 " fill-opacity="1" fill-rule="nonzero"/><path fill="#ff914d" d="M 175.957031 77.492188 C 175.8125 77.546875 175.675781 77.617188 175.53125 77.65625 C 175.113281 77.773438 174.738281 77.714844 174.433594 77.390625 C 174.320312 77.265625 174.210938 77.148438 174.097656 77.023438 C 174.039062 76.949219 173.960938 76.9375 173.875 76.949219 C 173.832031 76.957031 173.773438 77.015625 173.765625 77.0625 C 173.757812 77.113281 173.753906 77.171875 173.757812 77.226562 C 173.773438 77.363281 173.796875 77.5 173.8125 77.636719 C 173.835938 77.859375 173.757812 78.050781 173.601562 78.199219 C 173.535156 78.265625 173.457031 78.324219 173.375 78.375 C 173.222656 78.472656 173.054688 78.535156 172.882812 78.597656 C 172.804688 78.625 172.730469 78.664062 172.660156 78.703125 C 172.554688 78.769531 172.570312 78.957031 172.679688 79.015625 C 172.726562 79.042969 172.777344 79.070312 172.832031 79.089844 C 172.933594 79.128906 173.039062 79.160156 173.144531 79.195312 C 173.457031 79.292969 173.648438 79.515625 173.765625 79.816406 C 173.824219 79.972656 173.855469 80.136719 173.871094 80.300781 C 173.875 80.363281 173.894531 80.429688 173.921875 80.496094 C 173.957031 80.585938 174.074219 80.601562 174.132812 80.527344 C 174.171875 80.488281 174.195312 80.4375 174.238281 80.398438 C 174.308594 80.300781 174.378906 80.195312 174.464844 80.101562 C 174.777344 79.722656 175.179688 79.597656 175.648438 79.738281 C 175.695312 79.75 175.734375 79.761719 175.78125 79.769531 C 175.84375 79.789062 175.910156 79.789062 175.96875 79.78125 C 176.046875 79.777344 176.101562 79.652344 176.054688 79.585938 C 175.996094 79.507812 175.929688 79.4375 175.871094 79.363281 C 175.726562 79.1875 175.664062 78.976562 175.648438 78.75 C 175.628906 78.453125 175.722656 78.207031 175.941406 78.011719 C 176.015625 77.945312 176.09375 77.886719 176.164062 77.820312 C 176.21875 77.773438 176.222656 77.65625 176.191406 77.585938 C 176.160156 77.507812 176.046875 77.460938 175.957031 77.492188 Z M 175.347656 79.285156 C 175.320312 79.285156 175.296875 79.285156 175.261719 79.285156 C 174.957031 79.257812 174.699219 79.390625 174.464844 79.566406 C 174.378906 79.632812 174.300781 79.71875 174.222656 79.789062 C 174.195312 79.816406 174.144531 79.796875 174.132812 79.757812 C 174.113281 79.691406 174.097656 79.617188 174.078125 79.558594 C 173.976562 79.277344 173.8125 79.050781 173.542969 78.898438 C 173.511719 78.878906 173.472656 78.859375 173.445312 78.828125 C 173.433594 78.816406 173.445312 78.769531 173.457031 78.761719 C 173.503906 78.730469 173.554688 78.710938 173.601562 78.683594 C 173.890625 78.535156 174.117188 78.316406 174.238281 78.003906 C 174.25 77.964844 174.269531 77.925781 174.289062 77.890625 C 174.300781 77.871094 174.339844 77.859375 174.355469 77.867188 C 174.40625 77.886719 174.453125 77.917969 174.5 77.945312 C 174.679688 78.042969 174.878906 78.109375 175.085938 78.121094 C 175.171875 78.128906 175.25 78.132812 175.335938 78.140625 C 175.355469 78.140625 175.375 78.160156 175.382812 78.179688 C 175.386719 78.238281 175.367188 78.296875 175.347656 78.34375 C 175.277344 78.566406 175.296875 78.78125 175.359375 78.996094 C 175.382812 79.0625 175.40625 79.128906 175.433594 79.195312 C 175.453125 79.246094 175.414062 79.285156 175.347656 79.285156 Z M 175.347656 79.285156 " fill-opacity="1" fill-rule="nonzero"/><g clip-path="url(#ca732016f5)"><path fill="#ff914d" d="M 200.800781 45.175781 C 200.847656 45.199219 200.898438 45.21875 200.949219 45.238281 C 201.148438 45.3125 201.277344 45.449219 201.355469 45.632812 C 201.402344 45.730469 201.421875 45.839844 201.449219 45.945312 C 201.460938 45.984375 201.46875 46.023438 201.480469 46.0625 C 201.492188 46.101562 201.570312 46.144531 201.617188 46.144531 C 201.675781 46.136719 201.730469 46.117188 201.761719 46.070312 C 201.8125 45.992188 201.859375 45.90625 201.917969 45.828125 C 202.03125 45.683594 202.179688 45.625 202.355469 45.683594 C 202.460938 45.71875 202.566406 45.757812 202.671875 45.789062 C 202.691406 45.796875 202.730469 45.78125 202.742188 45.761719 C 202.761719 45.730469 202.789062 45.683594 202.78125 45.652344 C 202.75 45.5625 202.695312 45.476562 202.664062 45.390625 C 202.574219 45.148438 202.566406 44.90625 202.671875 44.664062 C 202.691406 44.613281 202.722656 44.566406 202.75 44.519531 C 202.800781 44.410156 202.742188 44.296875 202.617188 44.273438 C 202.566406 44.257812 202.507812 44.253906 202.453125 44.257812 C 202.390625 44.265625 202.316406 44.285156 202.253906 44.292969 C 202.035156 44.316406 201.839844 44.265625 201.683594 44.109375 C 201.636719 44.0625 201.585938 44.011719 201.527344 43.972656 C 201.46875 43.933594 201.394531 43.933594 201.332031 43.972656 C 201.277344 44.003906 201.257812 44.054688 201.265625 44.117188 C 201.269531 44.238281 201.285156 44.363281 201.289062 44.488281 C 201.289062 44.59375 201.238281 44.671875 201.171875 44.742188 C 201.09375 44.820312 200.988281 44.867188 200.898438 44.917969 C 200.851562 44.945312 200.820312 44.992188 200.78125 45.03125 C 200.75 45.058594 200.761719 45.15625 200.800781 45.175781 Z M 201.371094 45 C 201.5 44.875 201.597656 44.730469 201.636719 44.546875 C 201.644531 44.507812 201.691406 44.488281 201.734375 44.507812 C 201.886719 44.574219 202.035156 44.636719 202.207031 44.625 C 202.265625 44.617188 202.296875 44.664062 202.296875 44.730469 C 202.296875 44.816406 202.296875 44.894531 202.296875 44.953125 C 202.316406 45.070312 202.335938 45.160156 202.34375 45.257812 C 202.34375 45.28125 202.324219 45.304688 202.304688 45.324219 C 202.296875 45.332031 202.277344 45.339844 202.273438 45.339844 C 202.089844 45.339844 201.925781 45.398438 201.773438 45.507812 C 201.742188 45.535156 201.695312 45.519531 201.671875 45.480469 C 201.59375 45.339844 201.5 45.199219 201.363281 45.101562 C 201.332031 45.082031 201.332031 45.03125 201.371094 45 Z M 201.371094 45 " fill-opacity="1" fill-rule="nonzero"/></g><path fill="#ff914d" d="M 192.78125 55.042969 C 192.730469 55.011719 192.671875 55.015625 192.625 55.050781 C 192.554688 55.109375 192.476562 55.175781 192.417969 55.246094 C 192.359375 55.316406 192.3125 55.410156 192.265625 55.496094 C 191.964844 56.035156 191.605469 56.546875 191.21875 57.039062 C 191.074219 57.222656 190.925781 57.402344 190.78125 57.59375 C 190.632812 57.789062 190.480469 57.984375 190.332031 58.1875 C 190.292969 58.242188 190.265625 58.304688 190.238281 58.371094 C 190.210938 58.445312 190.238281 58.527344 190.296875 58.585938 C 190.363281 58.652344 190.46875 58.667969 190.554688 58.621094 C 190.558594 58.621094 190.558594 58.613281 190.566406 58.613281 C 190.632812 58.5625 190.691406 58.503906 190.742188 58.4375 C 191.082031 58 191.421875 57.5625 191.761719 57.128906 C 192.109375 56.679688 192.421875 56.207031 192.699219 55.710938 C 192.757812 55.597656 192.808594 55.488281 192.855469 55.371094 C 192.875 55.316406 192.882812 55.265625 192.882812 55.207031 C 192.886719 55.132812 192.839844 55.074219 192.78125 55.042969 Z M 192.78125 55.042969 " fill-opacity="1" fill-rule="nonzero"/><path fill="#ff914d" d="M 188.589844 59.3125 C 188.546875 59.289062 188.492188 59.261719 188.441406 59.253906 C 188.316406 59.226562 188.199219 59.207031 188.074219 59.1875 C 187.625 59.136719 187.183594 59.019531 186.753906 58.863281 C 186.464844 58.757812 186.183594 58.652344 185.898438 58.554688 C 185.792969 58.523438 185.6875 58.496094 185.578125 58.476562 C 185.523438 58.46875 185.464844 58.484375 185.414062 58.488281 C 185.347656 58.503906 185.277344 58.574219 185.28125 58.625 C 185.289062 58.679688 185.300781 58.738281 185.335938 58.777344 C 185.414062 58.882812 185.53125 58.925781 185.648438 58.96875 C 185.941406 59.078125 186.242188 59.1875 186.542969 59.289062 C 186.804688 59.371094 187.066406 59.457031 187.335938 59.527344 C 187.644531 59.609375 187.957031 59.671875 188.296875 59.679688 C 188.308594 59.679688 188.355469 59.679688 188.394531 59.671875 C 188.421875 59.671875 188.453125 59.667969 188.472656 59.660156 C 188.527344 59.640625 188.578125 59.613281 188.617188 59.582031 C 188.703125 59.523438 188.6875 59.367188 188.589844 59.3125 Z M 188.589844 59.3125 " fill-opacity="1" fill-rule="nonzero"/></svg>