<svg xmlns="http://www.w3.org/2000/svg" xmlns:xlink="http://www.w3.org/1999/xlink" width="512" zoomAndPan="magnify" viewBox="0 0 384 95.249998" height="127" preserveAspectRatio="xMidYMid meet" version="1.0"><defs><g/><clipPath id="aa74475d8e"><path d="M 92.070312 17.023438 L 150.113281 17.023438 L 150.113281 75.066406 L 92.070312 75.066406 Z M 92.070312 17.023438 " clip-rule="nonzero"/></clipPath></defs><g fill="#000000" fill-opacity="1"><g transform="translate(168.447914, 65.276572)"><g><path d="M 14.046875 -17.925781 L 14.046875 -23.476562 L 8.152344 -23.476562 L 8.152344 -27.160156 L 2.308594 -27.160156 L 2.308594 0 L 8.152344 0 L 8.152344 -17.925781 Z M 14.046875 -17.925781 "/></g></g><g transform="translate(183.476578, 65.276572)"><g><path d="M 2.0625 -4.421875 C 2.0625 -0.292969 4.910156 0 7.957031 0 L 25.539062 0 L 25.539062 -5.550781 L 10.066406 -5.550781 C 8.742188 -5.550781 7.90625 -5.597656 7.90625 -6.972656 L 7.90625 -8.988281 L 25.539062 -8.988281 L 25.539062 -19.054688 C 25.539062 -23.179688 22.691406 -23.476562 19.644531 -23.476562 L 7.957031 -23.476562 C 4.910156 -23.476562 2.0625 -23.179688 2.0625 -19.054688 Z M 7.90625 -16.503906 C 7.90625 -17.878906 8.742188 -17.925781 10.066406 -17.925781 L 17.535156 -17.925781 C 18.859375 -17.925781 19.695312 -17.878906 19.695312 -16.503906 L 19.695312 -14.539062 L 7.90625 -14.539062 Z M 7.90625 -16.503906 "/></g></g></g><g fill="#000000" fill-opacity="1"><g transform="translate(211.078235, 65.276572)"><g><path d="M 2.0625 -13.40625 C 2.0625 -9.28125 4.910156 -8.988281 7.957031 -8.988281 L 17.535156 -8.988281 C 18.859375 -8.988281 19.695312 -8.9375 19.695312 -7.5625 L 19.695312 -6.972656 C 19.695312 -5.597656 18.859375 -5.550781 17.535156 -5.550781 L 2.0625 -5.550781 L 2.0625 0 L 19.644531 0 C 22.691406 0 25.539062 -0.292969 25.539062 -4.421875 L 25.539062 -10.117188 C 25.539062 -14.242188 22.640625 -14.539062 19.597656 -14.539062 L 10.066406 -14.539062 C 8.742188 -14.539062 7.90625 -14.585938 7.90625 -15.960938 L 7.90625 -16.503906 C 7.90625 -17.878906 8.742188 -17.925781 10.066406 -17.925781 L 25.539062 -17.925781 L 25.539062 -23.476562 L 7.957031 -23.476562 C 4.910156 -23.476562 2.0625 -23.179688 2.0625 -19.105469 Z M 2.0625 -13.40625 "/></g></g></g><g fill="#000000" fill-opacity="1"><g transform="translate(238.679894, 65.276572)"><g><path d="M 8.152344 0 L 8.152344 -32.757812 L 2.308594 -32.757812 L 2.308594 0 Z M 8.152344 0 "/></g></g></g><g fill="#000000" fill-opacity="1"><g transform="translate(249.141021, 65.276572)"><g><path d="M 2.0625 -4.421875 C 2.0625 -0.292969 4.910156 0 7.957031 0 L 25.539062 0 L 25.539062 -5.550781 L 10.066406 -5.550781 C 8.742188 -5.550781 7.90625 -5.597656 7.90625 -6.972656 L 7.90625 -8.988281 L 25.539062 -8.988281 L 25.539062 -19.054688 C 25.539062 -23.179688 22.691406 -23.476562 19.644531 -23.476562 L 7.957031 -23.476562 C 4.910156 -23.476562 2.0625 -23.179688 2.0625 -19.054688 Z M 7.90625 -16.503906 C 7.90625 -17.878906 8.742188 -17.925781 10.066406 -17.925781 L 17.535156 -17.925781 C 18.859375 -17.925781 19.695312 -17.878906 19.695312 -16.503906 L 19.695312 -14.539062 L 7.90625 -14.539062 Z M 7.90625 -16.503906 "/></g></g></g><g fill="#000000" fill-opacity="1"><g transform="translate(276.74268, 65.276572)"><g><path d="M 14.046875 -17.925781 L 14.046875 -23.476562 L 2.308594 -23.476562 L 2.308594 0 L 8.152344 0 L 8.152344 -17.925781 Z M 14.046875 -17.925781 "/></g></g></g><path fill="#7ed63f" d="M 119.613281 35.964844 L 119.613281 62.316406 L 123.695312 62.316406 L 123.695312 35.964844 C 123.695312 35.421875 124.136719 34.945312 124.714844 34.945312 L 135.117188 34.945312 L 135.117188 30.898438 L 108.1875 30.898438 L 108.1875 34.945312 L 118.59375 34.945312 C 119.171875 34.945312 119.613281 35.421875 119.613281 35.964844 Z M 119.613281 35.964844 " fill-opacity="1" fill-rule="evenodd"/><path fill="#fe5022" d="M 125.734375 36.984375 L 125.734375 63.335938 C 125.734375 63.914062 125.257812 64.359375 124.714844 64.359375 L 118.59375 64.359375 C 118.050781 64.359375 117.574219 63.914062 117.574219 63.335938 L 117.574219 36.984375 L 107.167969 36.984375 C 106.589844 36.984375 106.148438 36.542969 106.148438 35.964844 L 106.148438 29.878906 C 106.148438 29.300781 106.589844 28.859375 107.167969 28.859375 L 136.140625 28.859375 C 136.71875 28.859375 137.160156 29.300781 137.160156 29.878906 L 137.160156 35.964844 C 137.160156 36.542969 136.71875 36.984375 136.140625 36.984375 Z M 94.691406 46.609375 C 94.691406 61.46875 106.792969 73.570312 121.652344 73.570312 C 136.511719 73.570312 148.617188 61.46875 148.617188 46.609375 C 148.617188 31.75 136.511719 19.644531 121.652344 19.644531 C 106.792969 19.644531 94.691406 31.75 94.691406 46.609375 Z M 94.691406 46.609375 " fill-opacity="1" fill-rule="evenodd"/><g clip-path="url(#aa74475d8e)"><path fill="#360b4b" d="M 121.074219 75.066406 C 105.09375 75.066406 92.070312 62.046875 92.070312 46.03125 C 92.070312 30.046875 105.09375 17.023438 121.074219 17.023438 C 137.089844 17.023438 150.113281 30.046875 150.113281 46.03125 C 150.113281 62.046875 137.089844 75.066406 121.074219 75.066406 Z M 124.136719 63.78125 L 118.050781 63.78125 C 117.472656 63.78125 117.03125 63.335938 117.03125 62.757812 L 117.03125 36.441406 L 106.589844 36.441406 C 106.046875 36.441406 105.570312 35.964844 105.570312 35.421875 L 105.570312 29.300781 C 105.570312 28.757812 106.046875 28.28125 106.589844 28.28125 L 135.59375 28.28125 C 136.140625 28.28125 136.613281 28.757812 136.613281 29.300781 L 136.613281 35.421875 C 136.613281 35.964844 136.140625 36.441406 135.59375 36.441406 L 125.15625 36.441406 L 125.15625 62.757812 C 125.15625 63.335938 124.679688 63.78125 124.136719 63.78125 Z M 119.070312 61.738281 L 123.117188 61.738281 L 123.117188 35.421875 C 123.117188 34.84375 123.558594 34.402344 124.136719 34.402344 L 134.539062 34.402344 L 134.539062 30.320312 L 107.609375 30.320312 L 107.609375 34.402344 L 118.050781 34.402344 C 118.59375 34.402344 119.070312 34.84375 119.070312 35.421875 Z M 121.074219 19.066406 C 106.214844 19.066406 94.113281 31.171875 94.113281 46.03125 C 94.113281 60.921875 106.214844 73.027344 121.074219 73.027344 C 135.96875 73.027344 148.074219 60.921875 148.074219 46.03125 C 148.074219 31.171875 135.96875 19.066406 121.074219 19.066406 Z M 121.074219 19.066406 " fill-opacity="1" fill-rule="nonzero"/></g></svg>